<svg width="2024" height="526" viewBox="0 0 2024 526" fill="none" xmlns="http://www.w3.org/2000/svg">
<path d="M168.77 358.806C154.128 340.696 126 329.907 99.0272 329.907C44.6971 329.907 0 367.669 0 427.779C0 489.43 45.4677 525.65 100.183 525.65C127.541 525.65 152.972 516.402 168.385 499.833L139.486 470.549C130.623 481.338 114.825 487.118 100.568 487.118C65.5044 487.118 48.165 456.678 48.165 427.779C48.165 398.88 65.119 368.439 99.0272 368.439C114.055 368.439 129.853 376.146 137.174 386.549L168.77 358.806Z" fill="#008600"/>
<path d="M191.227 520.255H237.465V421.228C237.465 407.742 245.557 371.522 287.172 371.522C291.41 371.522 295.263 371.907 301.428 373.448V331.063C298.346 330.293 293.722 329.907 290.254 329.907C265.979 329.907 246.328 344.935 236.309 366.127H235.539V335.302H191.227V520.255Z" fill="#008600"/>
<path d="M356.431 409.283C358.358 383.467 380.321 364.586 407.678 364.586C437.733 364.586 451.22 385.393 451.22 409.283H356.431ZM497.458 430.09C497.458 363.43 459.697 329.907 408.064 329.907C352.192 329.907 310.193 369.21 310.193 428.935C310.193 489.044 352.578 525.65 409.605 525.65C444.669 525.65 470.871 513.32 488.981 488.659L458.155 463.999C447.752 478.641 432.339 487.888 409.22 487.888C382.247 487.888 358.358 468.622 356.431 442.421H497.073C497.458 438.182 497.458 434.329 497.458 430.09Z" fill="#008600"/>
<path d="M719.337 250.285H673.099V358.806H671.943C662.31 346.861 643.814 329.907 609.906 329.907C557.117 329.907 520.127 372.293 520.127 427.008C520.127 480.953 554.805 525.65 611.062 525.65C636.878 525.65 661.924 513.705 674.64 492.512H675.41V520.255H719.337V250.285ZM567.136 427.008C567.136 398.109 584.475 367.669 620.31 367.669C654.218 367.669 674.64 398.88 674.64 427.779C674.64 456.678 654.218 487.118 620.31 487.118C584.475 487.118 567.136 455.907 567.136 427.008Z" fill="#008600"/>
<path d="M765.345 520.255H811.583V335.302H765.345V520.255ZM758.794 278.312C758.794 292.954 771.124 306.055 788.078 306.055C805.032 306.055 818.133 294.11 818.133 278.312C818.133 262.514 805.032 250.569 788.078 250.569C771.124 250.569 758.794 263.67 758.794 278.312Z" fill="#008600"/>
<path d="M876.739 372.293V458.604C876.739 494.054 887.913 524.108 936.849 524.108C947.253 524.108 959.583 522.182 967.675 519.099L966.133 482.879C960.739 485.577 952.647 486.732 946.482 486.732C926.06 486.732 922.207 474.788 922.207 458.219V372.293H968.445V335.302H922.207V281.742H876.739V335.302H844.372V372.293H876.739Z" fill="#008600"/>
<path d="M1003.38 520.255H1049.61V425.467H1050.77L1123.98 520.255H1185.25L1100.09 418.916L1180.24 335.302H1120.9L1050.77 413.136H1049.61V250.285H1003.38V520.255Z" fill="#008600"/>
<path d="M1315.39 520.255H1358.55V407.742C1358.55 370.751 1342.36 329.907 1276.09 329.907C1247.96 329.907 1218.67 339.926 1197.87 359.192L1221.76 387.32C1233.7 375.375 1252.58 366.127 1272.23 366.127C1295.35 366.127 1314.62 377.302 1314.62 400.036V404.659C1256.82 404.659 1187.46 412.366 1187.46 467.467C1187.46 510.622 1227.15 524.879 1256.82 524.879C1283.02 524.879 1304.99 512.934 1314.23 496.751H1315.39V520.255ZM1314.62 442.421C1314.62 471.705 1297.66 489.815 1266.07 489.815C1250.27 489.815 1233.7 484.421 1233.7 466.696C1233.7 439.338 1274.93 435.87 1304.22 435.87H1314.62V442.421Z" fill="#008600"/>
<path d="M1397.6 520.255H1443.84V421.228C1443.84 407.742 1451.93 371.522 1493.54 371.522C1497.78 371.522 1501.63 371.907 1507.8 373.448V331.063C1504.72 330.293 1500.09 329.907 1496.63 329.907C1472.35 329.907 1452.7 344.935 1442.68 366.127H1441.91V335.302H1397.6V520.255Z" fill="#008600"/>
<path d="M1760.09 329.907C1732.34 329.907 1711.53 342.623 1699.2 364.971C1688.8 344.164 1669.92 329.907 1641.41 329.907C1611.74 329.907 1592.09 346.861 1583.99 364.971H1583.22V335.302H1539.3V520.255H1585.54V418.531C1585.54 393.87 1598.25 368.439 1625.99 368.439C1649.5 368.439 1660.29 385.779 1660.29 408.513V520.255H1706.53V419.302C1706.53 395.412 1718.47 368.439 1747.37 368.439C1777.04 368.439 1782.05 395.797 1782.05 417.76V520.255H1828.29V404.659C1828.29 366.898 1808.25 329.907 1760.09 329.907Z" fill="#008600"/>
<path d="M1980.81 520.255H2023.97V407.742C2023.97 370.751 2007.78 329.907 1941.51 329.907C1913.38 329.907 1884.1 339.926 1863.29 359.192L1887.18 387.32C1899.12 375.375 1918 366.127 1937.66 366.127C1960.78 366.127 1980.04 377.302 1980.04 400.036V404.659C1922.24 404.659 1852.89 412.366 1852.89 467.467C1852.89 510.622 1892.57 524.879 1922.24 524.879C1948.45 524.879 1970.41 512.934 1979.66 496.751H1980.81V520.255ZM1980.04 442.421C1980.04 471.705 1963.09 489.815 1931.49 489.815C1915.69 489.815 1899.12 484.421 1899.12 466.696C1899.12 439.338 1940.35 435.87 1969.64 435.87H1980.04V442.421Z" fill="#008600"/>
<path d="M511.099 111.821C511.099 158.932 548.843 193.273 596.801 193.273C644.762 193.273 682.502 158.932 682.502 111.821V3.83156H636.105V106.286C636.105 131.687 619.081 148.715 596.66 148.715C574.241 148.715 557.211 131.687 557.211 106.286V3.83156H510.814L511.099 111.821ZM806.655 46.9698H862.135V189.725H908.532V47.1118H964.011V3.68955H806.801V46.9698H806.655ZM776.576 3.68955H730.179V189.725H776.576V3.68955ZM323.375 46.9698H378.855V189.725H425.253V47.1118H480.594V3.68955H323.375V46.9698ZM79.7509 3.68955H33.354V189.725H79.7509V3.68955ZM298.973 81.4529C298.973 34.3408 261.229 0 213.272 0C165.31 0 127.565 34.3408 127.565 81.4529V189.725H173.97V87.2709C173.97 61.8703 190.995 44.8419 213.412 44.8419C235.831 44.8419 252.856 61.8703 252.856 87.2709V189.725H299.259L298.973 81.4529Z" fill="black"/>
</svg>
